<?xml version="1.0" standalone="no"?>
<!DOCTYPE svg PUBLIC "-//W3C//DTD SVG 20010904//EN"
 "http://www.w3.org/TR/2001/REC-SVG-20010904/DTD/svg10.dtd">
<svg version="1.0" xmlns="http://www.w3.org/2000/svg"
 width="355.000000pt" height="355.000000pt" viewBox="0 0 355.000000 355.000000"
 preserveAspectRatio="xMidYMid meet">
<metadata>
Created by potrace 1.14, written by Peter Selinger 2001-2017
</metadata>
<g transform="translate(0.000000,355.000000) scale(0.100000,-0.100000)"
fill="#000000" stroke="none">
<path d="M0 1775 l0 -1775 1775 0 1775 0 0 1775 0 1775 -1775 0 -1775 0 0
-1775z m575 706 c22 -10 48 -27 57 -37 9 -10 76 -125 149 -254 73 -129 148
-263 168 -297 19 -35 38 -63 42 -63 4 0 45 69 91 153 47 83 94 168 105 187 11
19 48 85 82 145 35 61 72 120 83 132 40 43 91 54 238 51 l135 -3 0 -735 0
-735 -160 0 -160 0 -5 458 -5 458 -153 -256 -154 -255 -103 0 c-82 0 -104 3
-109 15 -3 8 -70 123 -148 255 l-143 241 -5 -458 -5 -458 -160 0 -160 0 -3
725 c-1 399 0 731 3 738 3 9 41 12 142 12 112 0 145 -4 178 -19z m2270 -10
c348 -94 555 -357 557 -706 0 -132 -18 -218 -72 -330 -92 -190 -262 -324 -490
-385 -79 -21 -110 -23 -437 -28 l-353 -4 0 682 c0 729 -1 709 50 755 48 43 61
45 370 41 266 -3 303 -5 375 -25z"/>
<path d="M2370 1760 l0 -440 163 0 c232 0 313 24 412 124 195 196 150 561 -87
699 -78 45 -145 57 -325 57 l-163 0 0 -440z"/>
</g>
</svg>
